<?xml version="1.0" encoding="UTF-8" standalone="no"?><svg xmlns="http://www.w3.org/2000/svg" xmlns:xlink="http://www.w3.org/1999/xlink" contentScriptType="application/ecmascript" contentStyleType="text/css" height="2060px" preserveAspectRatio="none" style="width:1650px;height:2060px;background:#FAFAFA;" version="1.1" viewBox="0 0 1650 2060" width="1650px" zoomAndPan="magnify"><defs/><g><!--MD5=[1eaf0e6fa702f479a4267051034c8c2f]
cluster Alpha Engine - Loja Virtual & Portal do Cliente--><rect fill="#FFFFFF" height="1929" style="stroke: #455A64; stroke-width: 1.5;" width="1290.5" x="349" y="120"/><text fill="#000000" font-family="Helvetica Neue" font-size="12" font-weight="bold" lengthAdjust="spacingAndGlyphs" textLength="274" x="857.25" y="134.8281">Alpha Engine - Loja Virtual &amp; Portal do Cliente</text><!--MD5=[134b26996445b841a3d2ff90a3976138]
cluster Catálogo, Busca & Mídia--><polygon fill="#F5F5F5" points="384.5,163,533.5,163,540.5,185.3441,987.5,185.3441,987.5,418,384.5,418,384.5,163" style="stroke: #90A4AE; stroke-width: 1.5;"/><line style="stroke: #90A4AE; stroke-width: 1.5;" x1="384.5" x2="540.5" y1="185.3441" y2="185.3441"/><text fill="#000000" font-family="Helvetica Neue" font-size="12" font-weight="bold" lengthAdjust="spacingAndGlyphs" textLength="143" x="388.5" y="177.8281">Catálogo, Busca &amp; Mídia</text><!--MD5=[25f0aaf097c10cdcdf9959da39e48e35]
cluster Carrinho & Compras--><polygon fill="#F5F5F5" points="1102.5,1717,1228.5,1717,1235.5,1739.3441,1615.5,1739.3441,1615.5,2025,1102.5,2025,1102.5,1717" style="stroke: #90A4AE; stroke-width: 1.5;"/><line style="stroke: #90A4AE; stroke-width: 1.5;" x1="1102.5" x2="1235.5" y1="1739.3441" y2="1739.3441"/><text fill="#000000" font-family="Helvetica Neue" font-size="12" font-weight="bold" lengthAdjust="spacingAndGlyphs" textLength="120" x="1106.5" y="1731.8281">Carrinho &amp; Compras</text><!--MD5=[be8c63c65f4658fc5c059940b3eaaedb]
cluster Autenticação & Sessão--><polygon fill="#F5F5F5" points="398.5,442,537.5,442,544.5,464.3441,986,464.3441,986,684,398.5,684,398.5,442" style="stroke: #90A4AE; stroke-width: 1.5;"/><line style="stroke: #90A4AE; stroke-width: 1.5;" x1="398.5" x2="544.5" y1="464.3441" y2="464.3441"/><text fill="#000000" font-family="Helvetica Neue" font-size="12" font-weight="bold" lengthAdjust="spacingAndGlyphs" textLength="133" x="402.5" y="456.8281">Autenticação &amp; Sessão</text><!--MD5=[3aa7ffe75d8a4628960fc4c30e7b0419]
cluster Área 'Minha Conta' (Painel do Cliente)--><polygon fill="#F5F5F5" points="374.5,708,605.5,708,612.5,730.3441,643.5,730.3441,643.5,1480,374.5,1480,374.5,708" style="stroke: #90A4AE; stroke-width: 1.5;"/><line style="stroke: #90A4AE; stroke-width: 1.5;" x1="374.5" x2="612.5" y1="730.3441" y2="730.3441"/><text fill="#000000" font-family="Helvetica Neue" font-size="12" font-weight="bold" lengthAdjust="spacingAndGlyphs" textLength="225" x="378.5" y="722.8281">Área 'Minha Conta' (Painel do Cliente)</text><!--MD5=[756a3da6652769b09728392bab93aa0b]
cluster Cotações & Projetos (RFQ / BoQ)--><polygon fill="#F5F5F5" points="373,1504,568,1504,575,1526.3441,1318.5,1526.3441,1318.5,1693,373,1693,373,1504" style="stroke: #90A4AE; stroke-width: 1.5;"/><line style="stroke: #90A4AE; stroke-width: 1.5;" x1="373" x2="575" y1="1526.3441" y2="1526.3441"/><text fill="#000000" font-family="Helvetica Neue" font-size="12" font-weight="bold" lengthAdjust="spacingAndGlyphs" textLength="189" x="377" y="1518.8281">Cotações &amp; Projetos (RFQ / BoQ)</text><ellipse cx="508.7548" cy="222.051" fill="#E3F2FD" rx="108.2548" ry="24.051" style="stroke: #1565C0; stroke-width: 1.5;"/><text fill="#000000" font-family="Helvetica Neue" font-size="12" lengthAdjust="spacingAndGlyphs" textLength="194" x="411.7548" y="226.723">Navegar no Catálogo &amp; Categorias</text><ellipse cx="509.0543" cy="302.1109" fill="#E3F2FD" rx="91.0543" ry="20.6109" style="stroke: #1565C0; stroke-width: 1.5;"/><text fill="#000000" font-family="Helvetica Neue" font-size="12" lengthAdjust="spacingAndGlyphs" textLength="156" x="431.0543" y="306.7829">Buscar Produtos com Filtros</text><ellipse cx="508.7619" cy="379.9524" fill="#E3F2FD" rx="97.7619" ry="21.9524" style="stroke: #1565C0; stroke-width: 1.5;"/><text fill="#000000" font-family="Helvetica Neue" font-size="12" lengthAdjust="spacingAndGlyphs" textLength="171" x="423.2619" y="384.6244">Visualizar Detalhes do Produto</text><ellipse cx="857.7132" cy="367.0426" fill="#E3F2FD" rx="98.2132" ry="22.0426" style="stroke: #1565C0; stroke-width: 1.5;"/><text fill="#000000" font-family="Helvetica Neue" font-size="12" lengthAdjust="spacingAndGlyphs" textLength="172" x="771.7132" y="371.7147">Selecionar Variantes &amp; Opções</text><ellipse cx="857.3087" cy="254.1617" fill="#E3F2FD" rx="113.8087" ry="25.1617" style="stroke: #1565C0; stroke-width: 1.5;"/><text fill="#000000" font-family="Helvetica Neue" font-size="12" lengthAdjust="spacingAndGlyphs" textLength="206" x="754.3087" y="258.8338">Carregar Mídia &amp; Cache On-Demand</text><ellipse cx="1194.9205" cy="1770.1841" fill="#E3F2FD" rx="76.4205" ry="17.6841" style="stroke: #1565C0; stroke-width: 1.5;"/><text fill="#000000" font-family="Helvetica Neue" font-size="12" lengthAdjust="spacingAndGlyphs" textLength="122" x="1133.9205" y="1774.8561">Adicionar ao Carrinho</text><ellipse cx="1509.1714" cy="1769.9343" fill="#E3F2FD" rx="77.6714" ry="17.9343" style="stroke: #1565C0; stroke-width: 1.5;"/><text fill="#000000" font-family="Helvetica Neue" font-size="12" lengthAdjust="spacingAndGlyphs" textLength="125" x="1446.6714" y="1774.6063">Calcular Frete por CEP</text><ellipse cx="1509.1117" cy="1988.0223" fill="#E3F2FD" rx="90.6117" ry="20.5223" style="stroke: #1565C0; stroke-width: 1.5;"/><text fill="#000000" font-family="Helvetica Neue" font-size="12" lengthAdjust="spacingAndGlyphs" textLength="155" x="1431.6117" y="1992.6944">Aplicar Cupom de Desconto</text><ellipse cx="1195.0722" cy="1878.9144" fill="#E3F2FD" rx="67.5722" ry="15.9144" style="stroke: #1565C0; stroke-width: 1.5;"/><text fill="#000000" font-family="Helvetica Neue" font-size="12" lengthAdjust="spacingAndGlyphs" textLength="100" x="1145.0722" y="1883.5865">Realizar Checkout</text><ellipse cx="1508.9038" cy="1912.7808" fill="#E3F2FD" rx="81.9038" ry="18.7808" style="stroke: #1565C0; stroke-width: 1.5;"/><text fill="#000000" font-family="Helvetica Neue" font-size="12" lengthAdjust="spacingAndGlyphs" textLength="135" x="1441.4038" y="1917.4528">Comprar como Visitante</text><ellipse cx="1508.8364" cy="1840.7673" fill="#E3F2FD" rx="76.8364" ry="17.7673" style="stroke: #1565C0; stroke-width: 1.5;"/><text fill="#000000" font-family="Helvetica Neue" font-size="12" lengthAdjust="spacingAndGlyphs" textLength="123" x="1447.3364" y="1845.4393">Processar Pagamento</text><ellipse cx="508.7534" cy="494.8507" fill="#E3F2FD" rx="77.2534" ry="17.8507" style="stroke: #1565C0; stroke-width: 1.5;"/><text fill="#000000" font-family="Helvetica Neue" font-size="12" lengthAdjust="spacingAndGlyphs" textLength="124" x="446.7534" y="499.5227">Cadastrar Nova Conta</text><ellipse cx="509.1164" cy="569.8233" fill="#E3F2FD" rx="94.6164" ry="21.3233" style="stroke: #1565C0; stroke-width: 1.5;"/><text fill="#000000" font-family="Helvetica Neue" font-size="12" lengthAdjust="spacingAndGlyphs" textLength="164" x="427.1164" y="574.4953">Autenticar-se (Login / Logout)</text><ellipse cx="509.0543" cy="647.1109" fill="#E3F2FD" rx="91.0543" ry="20.6109" style="stroke: #1565C0; stroke-width: 1.5;"/><text fill="#000000" font-family="Helvetica Neue" font-size="12" lengthAdjust="spacingAndGlyphs" textLength="156" x="431.0543" y="651.7829">Recuperar Senha por E-mail</text><ellipse cx="857.4158" cy="569.8832" fill="#E3F2FD" rx="112.4158" ry="24.8832" style="stroke: #1565C0; stroke-width: 1.5;"/><text fill="#000000" font-family="Helvetica Neue" font-size="12" lengthAdjust="spacingAndGlyphs" textLength="203" x="755.9158" y="574.5552">Sincronizar Sessão Redis &amp; Carrinho</text><ellipse cx="508.985" cy="1443.797" fill="#E3F2FD" rx="84.485" ry="19.297" style="stroke: #1565C0; stroke-width: 1.5;"/><text fill="#000000" font-family="Helvetica Neue" font-size="12" lengthAdjust="spacingAndGlyphs" textLength="141" x="438.485" y="1448.4691">Acessar Painel do Cliente</text><ellipse cx="508.949" cy="767.092" fill="#E3F2FD" rx="104.949" ry="24.092" style="stroke: #1565C0; stroke-width: 1.5;"/><text fill="#000000" font-family="Helvetica Neue" font-size="12" lengthAdjust="spacingAndGlyphs" textLength="158" x="429.949" y="766.6041">Gerenciar Dados Cadastrais</text><text fill="#000000" font-family="Helvetica Neue" font-size="12" lengthAdjust="spacingAndGlyphs" textLength="81" x="468.449" y="782.9482">(/account/edit)</text><ellipse cx="508.8583" cy="851.9251" fill="#E3F2FD" rx="98.3583" ry="25.4251" style="stroke: #1565C0; stroke-width: 1.5;"/><text fill="#000000" font-family="Helvetica Neue" font-size="12" lengthAdjust="spacingAndGlyphs" textLength="121" x="448.3583" y="847.4354">Alterar Senha Logado</text><text fill="#000000" font-family="Helvetica Neue" font-size="12" lengthAdjust="spacingAndGlyphs" textLength="139" x="439.3583" y="863.7795">(/account/resetar-senha)</text><ellipse cx="509.2033" cy="937.8407" fill="#E3F2FD" rx="112.2033" ry="24.8407" style="stroke: #1565C0; stroke-width: 1.5;"/><text fill="#000000" font-family="Helvetica Neue" font-size="12" lengthAdjust="spacingAndGlyphs" textLength="165" x="426.7033" y="936.3752">Gerenciar Livro de Endereços</text><text fill="#000000" font-family="Helvetica Neue" font-size="12" lengthAdjust="spacingAndGlyphs" textLength="118" x="450.2033" y="952.7193">(/account/addresses)</text><ellipse cx="509.0842" cy="1023.0926" fill="#E3F2FD" rx="102.0842" ry="24.5926" style="stroke: #1565C0; stroke-width: 1.5;"/><text fill="#000000" font-family="Helvetica Neue" font-size="12" lengthAdjust="spacingAndGlyphs" textLength="150" x="434.0842" y="1021.8261">Gerenciar Lista de Desejos</text><text fill="#000000" font-family="Helvetica Neue" font-size="12" lengthAdjust="spacingAndGlyphs" textLength="101" x="458.5842" y="1038.1702">(/account/wishlist)</text><ellipse cx="509.1984" cy="1106.9397" fill="#E3F2FD" rx="110.1984" ry="24.4397" style="stroke: #1565C0; stroke-width: 1.5;"/><text fill="#000000" font-family="Helvetica Neue" font-size="12" lengthAdjust="spacingAndGlyphs" textLength="166" x="426.1984" y="1106.2155">Consultar Pedidos &amp; Histórico</text><text fill="#000000" font-family="Helvetica Neue" font-size="12" lengthAdjust="spacingAndGlyphs" textLength="97" x="460.6984" y="1122.5596">(/account/orders)</text><ellipse cx="508.9233" cy="1191.9847" fill="#E3F2FD" rx="115.4233" ry="25.4847" style="stroke: #1565C0; stroke-width: 1.5;"/><text fill="#000000" font-family="Helvetica Neue" font-size="12" lengthAdjust="spacingAndGlyphs" textLength="177" x="420.4233" y="1190.9626">Consultar Extrato &amp; Transações</text><text fill="#000000" font-family="Helvetica Neue" font-size="12" lengthAdjust="spacingAndGlyphs" textLength="123" x="447.4233" y="1207.3067">(/account/transaction)</text><ellipse cx="508.8198" cy="1277.0605" fill="#E3F2FD" rx="97.3198" ry="24.5605" style="stroke: #1565C0; stroke-width: 1.5;"/><text fill="#000000" font-family="Helvetica Neue" font-size="12" lengthAdjust="spacingAndGlyphs" textLength="143" x="437.3198" y="1275.8432">Solicitar Devolução / RMA</text><text fill="#000000" font-family="Helvetica Neue" font-size="12" lengthAdjust="spacingAndGlyphs" textLength="95" x="461.3198" y="1292.1873">(/account/return)</text><ellipse cx="508.8252" cy="1363.065" fill="#E3F2FD" rx="118.3252" ry="26.065" style="stroke: #1565C0; stroke-width: 1.5;"/><text fill="#000000" font-family="Helvetica Neue" font-size="12" lengthAdjust="spacingAndGlyphs" textLength="191" x="413.3252" y="1362.9791">Gerenciar Inscrição na Newsletter</text><text fill="#000000" font-family="Helvetica Neue" font-size="12" lengthAdjust="spacingAndGlyphs" textLength="119" x="449.3252" y="1379.3232">(/account/newsletter)</text><ellipse cx="509.2096" cy="1565.9419" fill="#E3F2FD" rx="120.2096" ry="26.4419" style="stroke: #1565C0; stroke-width: 1.5;"/><text fill="#000000" font-family="Helvetica Neue" font-size="12" lengthAdjust="spacingAndGlyphs" textLength="207" x="405.7096" y="1567.7845">Criar Solicitação de Orçamento (RFQ)</text><text fill="#000000" font-family="Helvetica Neue" font-size="12" lengthAdjust="spacingAndGlyphs" textLength="89" x="464.7096" y="1584.1286">(/projetos/novo)</text><ellipse cx="509.0683" cy="1652.1308" fill="#E3F2FD" rx="105.5683" ry="24.6308" style="stroke: #1565C0; stroke-width: 1.5;"/><text fill="#000000" font-family="Helvetica Neue" font-size="12" lengthAdjust="spacingAndGlyphs" textLength="155" x="431.5683" y="1650.8059">Acompanhar Meus Projetos</text><text fill="#000000" font-family="Helvetica Neue" font-size="12" lengthAdjust="spacingAndGlyphs" textLength="106" x="456.0683" y="1667.15">(/account/projetos)</text><ellipse cx="857.3985" cy="1566.9797" fill="#E3F2FD" rx="110.3985" ry="24.4797" style="stroke: #1565C0; stroke-width: 1.5;"/><text fill="#000000" font-family="Helvetica Neue" font-size="12" lengthAdjust="spacingAndGlyphs" textLength="176" x="769.3985" y="1567.5105">Comparar Propostas Recebidas</text><text fill="#000000" font-family="Helvetica Neue" font-size="12" lengthAdjust="spacingAndGlyphs" textLength="68" x="823.3985" y="1583.8546">(/propostas)</text><ellipse cx="1194.9768" cy="1566.8954" fill="#E3F2FD" rx="107.4768" ry="23.8954" style="stroke: #1565C0; stroke-width: 1.5;"/><text fill="#000000" font-family="Helvetica Neue" font-size="12" lengthAdjust="spacingAndGlyphs" textLength="168" x="1110.9768" y="1567.3147">Aceitar Proposta de Prestador</text><text fill="#000000" font-family="Helvetica Neue" font-size="12" lengthAdjust="spacingAndGlyphs" textLength="51" x="1169.4768" y="1583.6588">(/aceitar)</text><ellipse cx="857.5326" cy="1652.0065" fill="#E3F2FD" rx="113.0326" ry="25.0065" style="stroke: #1565C0; stroke-width: 1.5;"/><text fill="#000000" font-family="Helvetica Neue" font-size="12" lengthAdjust="spacingAndGlyphs" textLength="191" x="762.0326" y="1653.9201">Aprovar BoQ &amp; Enviar ao Carrinho</text><text fill="#000000" font-family="Helvetica Neue" font-size="12" lengthAdjust="spacingAndGlyphs" textLength="33" x="841.0326" y="1670.2642">(/boq)</text><!--MD5=[9eecb807d8a7c1ba44cb916f191401d3]
entity Guest--><ellipse cx="30" cy="532" fill="#FFF3E0" rx="8" ry="8" style="stroke: #E65100; stroke-width: 1.5;"/><path d="M30,540 L30,567 M17,548 L43,548 M30,567 L17,582 M30,567 L43,582 " fill="none" style="stroke: #E65100; stroke-width: 1.5;"/><text fill="#000000" font-family="Helvetica Neue" font-size="12" lengthAdjust="spacingAndGlyphs" textLength="48" x="6" y="597.3281">Visitante</text><text fill="#000000" font-family="Helvetica Neue" font-size="12" lengthAdjust="spacingAndGlyphs" textLength="41" x="6" y="613.6722">(Guest)</text><!--MD5=[ae78ca0dd1f49bdd788e5556d70823ac]
entity Customer--><ellipse cx="260.5" cy="1112" fill="#FFF3E0" rx="8" ry="8" style="stroke: #E65100; stroke-width: 1.5;"/><path d="M260.5,1120 L260.5,1147 M247.5,1128 L273.5,1128 M260.5,1147 L247.5,1162 M260.5,1147 L273.5,1162 " fill="none" style="stroke: #E65100; stroke-width: 1.5;"/><text fill="#000000" font-family="Helvetica Neue" font-size="12" lengthAdjust="spacingAndGlyphs" textLength="83" x="219" y="1177.3281">Cliente Logado</text><text fill="#000000" font-family="Helvetica Neue" font-size="12" lengthAdjust="spacingAndGlyphs" textLength="63" x="219" y="1193.6722">(Customer)</text><!--MD5=[abea0b42432aea0f9ce66e53feda8644]
entity System--><ellipse cx="509" cy="18" fill="#FFF3E0" rx="8" ry="8" style="stroke: #E65100; stroke-width: 1.5;"/><path d="M509,26 L509,53 M496,34 L522,34 M509,53 L496,68 M509,53 L522,68 " fill="none" style="stroke: #E65100; stroke-width: 1.5;"/><text fill="#000000" font-family="Helvetica Neue" font-size="12" lengthAdjust="spacingAndGlyphs" textLength="104" x="457" y="83.3281">Sistema / Gateway</text><text fill="#000000" font-family="Helvetica Neue" font-size="12" lengthAdjust="spacingAndGlyphs" textLength="81" x="457" y="99.6722">(Alpha Engine)</text><!--MD5=[27004599a83f52bd225e6dde02d4de1e]
reverse link Guest to Customer--><path d="M57.34,636.87 C104.02,755.35 200.14,999.34 240.74,1102.39 " fill="none" id="Guest&lt;-Customer" style="stroke: #37474F; stroke-width: 1.0;"/><polygon fill="none" points="50.71,639.13,49.89,617.96,63.74,634,50.71,639.13" style="stroke: #37474F; stroke-width: 1.0;"/><text fill="#37474F" font-family="Helvetica Neue" font-size="12" lengthAdjust="spacingAndGlyphs" textLength="103" x="85" y="706.8281">Herda permissões</text><!--MD5=[ae63bd38a512e0b07f32d9db87b915ec]
link Guest to UC_Nav--><path d="M34.93,522.27 C40.36,483.56 53.27,429.61 84,393 C165.96,295.35 312,252.92 409.43,234.86 " fill="none" id="Guest-&gt;UC_Nav" style="stroke: #37474F; stroke-width: 1.0;"/><polygon fill="#37474F" points="414.61,233.91,405.0367,231.5967,409.6918,234.8107,406.4778,239.4659,414.61,233.91" style="stroke: #37474F; stroke-width: 1.0;"/><!--MD5=[3c60312cd9e49501e6725b4bf496b2e2]
link Guest to UC_Search--><path d="M44.31,522.25 C52.64,499.54 65.4,473.4 84,455 C176.25,363.77 326.83,326.54 421.51,311.62 " fill="none" id="Guest-&gt;UC_Search" style="stroke: #37474F; stroke-width: 1.0;"/><polygon fill="#37474F" points="426.54,310.84,417.0308,308.2757,421.5998,311.611,418.2645,316.18,426.54,310.84" style="stroke: #37474F; stroke-width: 1.0;"/><!--MD5=[5ae4f26841ead016f1ae0e8abbe07ce1]
link Guest to UC_ProductDetail--><path d="M54.05,535.43 C62.43,525.05 72.65,514.46 84,507 C187.06,439.3 327.51,406.57 417.99,391.57 " fill="none" id="Guest-&gt;UC_ProductDetail" style="stroke: #37474F; stroke-width: 1.0;"/><polygon fill="#37474F" points="423.06,390.74,413.5365,388.2293,418.1242,391.5389,414.8147,396.1266,423.06,390.74" style="stroke: #37474F; stroke-width: 1.0;"/><!--MD5=[d5c2d182cd1f1bb333a496b3f2e966e4]
link Guest to UC_Cart--><path d="M35.14,617.8 C54.82,837.89 142.86,1743 259.5,1743 C259.5,1743 259.5,1743 858.5,1743 C949.91,1743 1054.87,1753.08 1122.7,1760.92 " fill="none" id="Guest-&gt;UC_Cart" style="stroke: #37474F; stroke-width: 1.0;"/><polygon fill="#37474F" points="1127.92,1761.53,1119.4498,1756.5044,1122.9543,1760.945,1118.5138,1764.4495,1127.92,1761.53" style="stroke: #37474F; stroke-width: 1.0;"/><!--MD5=[5a687e50496296cab0d8668916607e76]
link Guest to UC_Register--><path d="M54.05,556.56 C63.11,551.86 73.77,547 84,544 C199.72,510.03 339.68,499.45 426.28,496.24 " fill="none" id="Guest-&gt;UC_Register" style="stroke: #37474F; stroke-width: 1.0;"/><polygon fill="#37474F" points="431.4,496.06,422.2682,492.3707,426.4029,496.2313,422.5423,500.366,431.4,496.06" style="stroke: #37474F; stroke-width: 1.0;"/><!--MD5=[a0b9cd09cc67441be80fb366e5b2a356]
link Guest to UC_Login--><path d="M54.01,570 C117.09,570 295.62,570 409.1,570 " fill="none" id="Guest-&gt;UC_Login" style="stroke: #37474F; stroke-width: 1.0;"/><polygon fill="#37474F" points="414.12,570,405.12,566,409.12,570,405.12,574,414.12,570" style="stroke: #37474F; stroke-width: 1.0;"/><!--MD5=[17df108afd0c2636cdb73736b58a6a6f]
link Guest to UC_ForgotPass--><path d="M54.01,573.71 C120.96,584.52 318,616.33 429.24,634.29 " fill="none" id="Guest-&gt;UC_ForgotPass" style="stroke: #37474F; stroke-width: 1.0;"/><polygon fill="#37474F" points="434.47,635.13,426.2272,629.7397,429.5346,634.3289,424.9454,637.6363,434.47,635.13" style="stroke: #37474F; stroke-width: 1.0;"/><!--MD5=[50268850d9cdc0ada5aba09c90c51ee4]
link Guest to UC_Checkout--><path d="M31.75,617.66 C35.02,811.39 49.44,1534.06 84,1630 C128.17,1752.64 129.14,1865 259.5,1865 C259.5,1865 259.5,1865 858.5,1865 C950.54,1865 1056.67,1870.33 1124.49,1874.41 " fill="none" id="Guest-&gt;UC_Checkout" style="stroke: #37474F; stroke-width: 1.0;"/><polygon fill="#37474F" points="1129.72,1874.72,1120.9757,1870.1882,1124.729,1874.4205,1120.4966,1878.1738,1129.72,1874.72" style="stroke: #37474F; stroke-width: 1.0;"/><!--MD5=[1315ea84dc9919f7c439d4c379b2ece4]
reverse link UC_ProductDetail to UC_Variants--><path d="M611.18,376.2 C658.31,374.44 714.09,372.34 760.55,370.6 " fill="none" id="UC_ProductDetail&lt;-UC_Variants" style="stroke: #37474F; stroke-width: 1.0; stroke-dasharray: 7.0,7.0;"/><polygon fill="#37474F" points="606.06,376.4,615.2023,380.0632,611.0566,376.2144,614.9053,372.0687,606.06,376.4" style="stroke: #37474F; stroke-width: 1.0;"/><text fill="#37474F" font-family="Helvetica Neue" font-size="12" lengthAdjust="spacingAndGlyphs" textLength="50" x="661.5" y="368.8281">«extend»</text><!--MD5=[d2138fde3237375ee19edc1badf22d4d]
link UC_ProductDetail to UC_MediaCache--><path d="M574.62,363.51 C598.92,356.85 626.68,348.68 651.5,340 C703.66,321.76 761.6,297.02 802.54,278.76 " fill="none" id="UC_ProductDetail-&gt;UC_MediaCache" style="stroke: #37474F; stroke-width: 1.0; stroke-dasharray: 7.0,7.0;"/><polygon fill="#37474F" points="807.45,276.57,797.6012,276.6015,802.8875,278.6153,800.8736,283.9015,807.45,276.57" style="stroke: #37474F; stroke-width: 1.0;"/><text fill="#37474F" font-family="Helvetica Neue" font-size="12" lengthAdjust="spacingAndGlyphs" textLength="52" x="660.5" y="314.8281">«include»</text><!--MD5=[5f5553fdcde1d6eb687776b63705d5dd]
reverse link UC_Cart to UC_Shipping--><path d="M1276.69,1770 C1324.34,1770 1384.33,1770 1431.27,1770 " fill="none" id="UC_Cart&lt;-UC_Shipping" style="stroke: #37474F; stroke-width: 1.0; stroke-dasharray: 7.0,7.0;"/><polygon fill="#37474F" points="1271.53,1770,1280.53,1774,1276.53,1770,1280.53,1766,1271.53,1770" style="stroke: #37474F; stroke-width: 1.0;"/><text fill="#37474F" font-family="Helvetica Neue" font-size="12" lengthAdjust="spacingAndGlyphs" textLength="50" x="1336.5" y="1765.8281">«extend»</text><!--MD5=[96a9843cc67c50b3e6f235ffa1b8ce0e]
reverse link UC_Checkout to UC_Coupon--><path d="M1233.12,1895.04 C1260.82,1906.76 1299.72,1922.68 1334.5,1935 C1373.1,1948.67 1417.23,1962.12 1451.33,1972.05 " fill="none" id="UC_Checkout&lt;-UC_Coupon" style="stroke: #37474F; stroke-width: 1.0; stroke-dasharray: 7.0,7.0;"/><polygon fill="#37474F" points="1228.43,1893.05,1235.1456,1900.2542,1233.0309,1895.0075,1238.2776,1892.8928,1228.43,1893.05" style="stroke: #37474F; stroke-width: 1.0;"/><text fill="#37474F" font-family="Helvetica Neue" font-size="12" lengthAdjust="spacingAndGlyphs" textLength="50" x="1336.5" y="1930.8281">«extend»</text><!--MD5=[17bd5028d8033572f6f51872d1050b98]
reverse link UC_Checkout to UC_GuestCheckout--><path d="M1250.78,1890.54 C1276.14,1895.46 1306.74,1900.79 1334.5,1904 C1364.61,1907.48 1397.82,1909.62 1427.05,1910.93 " fill="none" id="UC_Checkout&lt;-UC_GuestCheckout" style="stroke: #37474F; stroke-width: 1.0; stroke-dasharray: 7.0,7.0;"/><polygon fill="#37474F" points="1245.78,1889.56,1253.8493,1895.2068,1250.6878,1890.5159,1255.3787,1887.3544,1245.78,1889.56" style="stroke: #37474F; stroke-width: 1.0;"/><text fill="#37474F" font-family="Helvetica Neue" font-size="12" lengthAdjust="spacingAndGlyphs" textLength="50" x="1336.5" y="1899.8281">«extend»</text><!--MD5=[5be7d0e57a0cb0092cefa4fec5cf75d2]
link UC_Checkout to UC_Payment--><path d="M1255.42,1871.76 C1306.55,1865.54 1380.49,1856.53 1435.17,1849.87 " fill="none" id="UC_Checkout-&gt;UC_Payment" style="stroke: #37474F; stroke-width: 1.0; stroke-dasharray: 7.0,7.0;"/><polygon fill="#37474F" points="1440.4,1849.23,1430.9856,1846.3372,1435.436,1849.8291,1431.9441,1854.2796,1440.4,1849.23" style="stroke: #37474F; stroke-width: 1.0;"/><text fill="#37474F" font-family="Helvetica Neue" font-size="12" lengthAdjust="spacingAndGlyphs" textLength="52" x="1335.5" y="1852.8281">«include»</text><!--MD5=[46ff3f4307d0286f0630d764b8aa2cbd]
link UC_Login to UC_SyncSession--><path d="M603.77,570 C645.65,570 695.43,570 739.7,570 " fill="none" id="UC_Login-&gt;UC_SyncSession" style="stroke: #37474F; stroke-width: 1.0; stroke-dasharray: 7.0,7.0;"/><polygon fill="#37474F" points="744.8,570,735.8,566,739.8,570,735.8,574,744.8,570" style="stroke: #37474F; stroke-width: 1.0;"/><text fill="#37474F" font-family="Helvetica Neue" font-size="12" lengthAdjust="spacingAndGlyphs" textLength="52" x="660.5" y="565.8281">«include»</text><!--MD5=[16ac27cbc3f1d3d08caf5051b85dc2e7]
link Customer to UC_AccountDash--><path d="M262.62,1197.54 C266.65,1255.32 282.42,1351.79 341,1406 C362.26,1425.68 391.53,1435.88 419.63,1440.97 " fill="none" id="Customer-&gt;UC_AccountDash" style="stroke: #37474F; stroke-width: 1.0;"/><polygon fill="#37474F" points="424.86,1441.86,416.6631,1436.4001,419.9315,1441.0172,415.3145,1444.2857,424.86,1441.86" style="stroke: #37474F; stroke-width: 1.0;"/><!--MD5=[d31ae57a89610b9a64030f81e3ba6254]
link Customer to UC_EditAccount--><path d="M266.52,1102.23 C276.27,1018.52 300.47,850.24 341,809 C357.73,791.98 380.26,781.49 403.35,775.11 " fill="none" id="Customer-&gt;UC_EditAccount" style="stroke: #37474F; stroke-width: 1.0;"/><polygon fill="#37474F" points="408.28,773.81,398.5581,772.2336,403.4448,775.0832,400.5952,779.9699,408.28,773.81" style="stroke: #37474F; stroke-width: 1.0;"/><!--MD5=[25dc4334b7ca36378965445eb3e21da1]
link Customer to UC_ChangePass--><path d="M262.97,1102.4 C267.37,1045.07 283.54,949.65 341,895 C359.61,877.3 384.5,866.64 409.37,860.28 " fill="none" id="Customer-&gt;UC_ChangePass" style="stroke: #37474F; stroke-width: 1.0;"/><polygon fill="#37474F" points="414.34,859.06,404.6481,857.3085,409.4826,860.2458,406.5454,865.0803,414.34,859.06" style="stroke: #37474F; stroke-width: 1.0;"/><!--MD5=[b19ec0a6dc5f1301a76eb7098ca2a78a]
link Customer to UC_Addresses--><path d="M272.05,1102.26 C282.96,1064.01 303.79,1011.81 341,981 C358.58,966.44 380.5,956.74 402.61,950.3 " fill="none" id="Customer-&gt;UC_Addresses" style="stroke: #37474F; stroke-width: 1.0;"/><polygon fill="#37474F" points="407.63,948.89,397.8862,947.4552,402.8138,950.2334,400.0356,955.161,407.63,948.89" style="stroke: #37474F; stroke-width: 1.0;"/><!--MD5=[1e887211ccf3b4b2c4cf3916f0d6e75d]
link Customer to UC_Wishlist--><path d="M297.46,1102.11 C309.89,1088.37 324.81,1074.54 341,1065 C363.46,1051.76 389.99,1042.67 415.21,1036.44 " fill="none" id="Customer-&gt;UC_Wishlist" style="stroke: #37474F; stroke-width: 1.0;"/><polygon fill="#37474F" points="420.24,1035.23,410.553,1033.4516,415.3794,1036.4023,412.4287,1041.2286,420.24,1035.23" style="stroke: #37474F; stroke-width: 1.0;"/><!--MD5=[210f45de668512a7921f6cffe8fc405c]
link Customer to UC_Orders--><path d="M302.2,1142.9 C333.29,1137.48 377.33,1129.79 416.7,1122.93 " fill="none" id="Customer-&gt;UC_Orders" style="stroke: #37474F; stroke-width: 1.0;"/><polygon fill="#37474F" points="421.97,1122.01,412.4177,1119.6112,417.0439,1122.8667,413.7885,1127.4929,421.97,1122.01" style="stroke: #37474F; stroke-width: 1.0;"/><!--MD5=[b9b2306c0bd65b6b34cd862f79d00aec]
link Customer to UC_Transactions--><path d="M302.2,1156.94 C332.04,1162.02 373.83,1169.14 411.95,1175.64 " fill="none" id="Customer-&gt;UC_Transactions" style="stroke: #37474F; stroke-width: 1.0;"/><polygon fill="#37474F" points="417.07,1176.51,408.8731,1171.0501,412.1415,1175.6672,407.5245,1178.9357,417.07,1176.51" style="stroke: #37474F; stroke-width: 1.0;"/><!--MD5=[ea5577db8f996c0a12cdaa0aa038e61b]
link Customer to UC_Returns--><path d="M297.46,1197.89 C309.89,1211.63 324.81,1225.46 341,1235 C364.18,1248.66 391.7,1257.91 417.65,1264.16 " fill="none" id="Customer-&gt;UC_Returns" style="stroke: #37474F; stroke-width: 1.0;"/><polygon fill="#37474F" points="422.81,1265.37,414.945,1259.442,417.939,1264.2415,413.1394,1267.2355,422.81,1265.37" style="stroke: #37474F; stroke-width: 1.0;"/><!--MD5=[a7242c3eb8ad2b5b82a504b2f96043af]
link Customer to UC_Newsletter--><path d="M272.1,1197.69 C283.03,1235.91 303.87,1288.09 341,1319 C357.82,1333 378.62,1342.6 399.76,1349.16 " fill="none" id="Customer-&gt;UC_Newsletter" style="stroke: #37474F; stroke-width: 1.0;"/><polygon fill="#37474F" points="404.56,1350.6,397.0977,1344.1723,399.7728,1349.1567,394.7885,1351.8318,404.56,1350.6" style="stroke: #37474F; stroke-width: 1.0;"/><!--MD5=[4630257355c10185e46e584c3d44c15f]
link Customer to UC_CreateRfq--><path d="M261.03,1197.64 C262.76,1266.96 275.39,1396.47 341,1480 C363.85,1509.09 399.23,1529.28 431.56,1542.75 " fill="none" id="Customer-&gt;UC_CreateRfq" style="stroke: #37474F; stroke-width: 1.0;"/><polygon fill="#37474F" points="436.3,1544.69,429.4932,1537.5719,431.6745,1542.7913,426.4552,1544.9727,436.3,1544.69" style="stroke: #37474F; stroke-width: 1.0;"/><!--MD5=[51fd0bcf1dc2bb08cf00b3acca952a06]
link Customer to UC_MyProjects--><path d="M263.34,1197.87 C268.37,1303.24 285.89,1550.58 341,1610 C357.04,1627.29 379.05,1637.92 401.83,1644.34 " fill="none" id="Customer-&gt;UC_MyProjects" style="stroke: #37474F; stroke-width: 1.0;"/><polygon fill="#37474F" points="406.7,1645.65,399.0494,1639.4478,401.8719,1644.3501,396.9696,1647.1727,406.7,1645.65" style="stroke: #37474F; stroke-width: 1.0;"/><!--MD5=[64c8e70c8955ec77cbd1d269b4f53eb4]
reverse link UC_MyProjects to UC_CompareBids--><path d="M587.08,1633.09 C645.42,1618.78 725.04,1599.25 782.59,1585.13 " fill="none" id="UC_MyProjects&lt;-UC_CompareBids" style="stroke: #37474F; stroke-width: 1.0; stroke-dasharray: 7.0,7.0;"/><polygon fill="#37474F" points="582.22,1634.28,591.9119,1636.0315,587.0774,1633.0942,590.0146,1628.2597,582.22,1634.28" style="stroke: #37474F; stroke-width: 1.0;"/><text fill="#37474F" font-family="Helvetica Neue" font-size="12" lengthAdjust="spacingAndGlyphs" textLength="50" x="661.5" y="1600.8281">«extend»</text><!--MD5=[558649e1f7935f9d6b0ed483e6328852]
reverse link UC_CompareBids to UC_AcceptBid--><path d="M973.76,1567 C1010.58,1567 1051.15,1567 1087.33,1567 " fill="none" id="UC_CompareBids&lt;-UC_AcceptBid" style="stroke: #37474F; stroke-width: 1.0; stroke-dasharray: 7.0,7.0;"/><polygon fill="#37474F" points="968.36,1567,977.36,1571,973.36,1567,977.36,1563,968.36,1567" style="stroke: #37474F; stroke-width: 1.0;"/><text fill="#37474F" font-family="Helvetica Neue" font-size="12" lengthAdjust="spacingAndGlyphs" textLength="50" x="1005.5" y="1562.8281">«extend»</text><!--MD5=[cef79bc16251f237f867d174413b46d1]
reverse link UC_MyProjects to UC_ApproveBoq--><path d="M620.21,1652 C659.86,1652 704.62,1652 744.43,1652 " fill="none" id="UC_MyProjects&lt;-UC_ApproveBoq" style="stroke: #37474F; stroke-width: 1.0; stroke-dasharray: 7.0,7.0;"/><polygon fill="#37474F" points="614.9,1652,623.9,1656,619.9,1652,623.9,1648,614.9,1652" style="stroke: #37474F; stroke-width: 1.0;"/><text fill="#37474F" font-family="Helvetica Neue" font-size="12" lengthAdjust="spacingAndGlyphs" textLength="50" x="661.5" y="1647.8281">«extend»</text><!--MD5=[b424611525adc3438884a158adf94c1e]
link UC_ApproveBoq to UC_Cart--><path d="M923.78,1672.33 C962.77,1684.72 1013.18,1701.17 1057.5,1717 C1089.28,1728.35 1124.8,1742.18 1151.64,1752.86 " fill="none" id="UC_ApproveBoq-&gt;UC_Cart" style="stroke: #37474F; stroke-width: 1.0; stroke-dasharray: 7.0,7.0;"/><polygon fill="#37474F" points="1156.55,1754.82,1149.6718,1747.7709,1151.9057,1752.968,1146.7085,1755.2018,1156.55,1754.82" style="stroke: #37474F; stroke-width: 1.0;"/><text fill="#37474F" font-family="Helvetica Neue" font-size="12" lengthAdjust="spacingAndGlyphs" textLength="52" x="1004.5" y="1696.8281">«include»</text><!--MD5=[5ccaa7001cdbaf5e67436b442004b1ee]
link System to UC_Payment--><path d="M561.37,53.57 C659.91,51.87 876.29,62.91 995.5,182 C1061.42,247.85 1356.94,1735.05 1418.5,1805 C1426.63,1814.24 1437.47,1821.14 1448.8,1826.29 " fill="none" id="System-&gt;UC_Payment" style="stroke: #37474F; stroke-width: 1.0;"/><polygon fill="#37474F" points="1453.67,1828.39,1446.9734,1821.1681,1449.0743,1826.4204,1443.822,1828.5213,1453.67,1828.39" style="stroke: #37474F; stroke-width: 1.0;"/><!--MD5=[774b6699341c8ab934f8c404d38c4e41]
link System to UC_MediaCache--><path d="M561.13,85.22 C628.69,123.82 746.66,191.24 811.18,228.1 " fill="none" id="System-&gt;UC_MediaCache" style="stroke: #37474F; stroke-width: 1.0;"/><polygon fill="#37474F" points="815.73,230.7,809.906,222.7577,811.3905,228.2162,805.932,229.7008,815.73,230.7" style="stroke: #37474F; stroke-width: 1.0;"/><!--MD5=[2d262e9c57d26ec33496b904bed8e151]
@startuml

skinparam backgroundColor #FAFAFA
skinparam defaultFontName "Helvetica Neue"
skinparam defaultFontSize 12
skinparam ArrowColor #37474F
skinparam ArrowFontColor #37474F
skinparam ActorBackgroundColor #FFF3E0
skinparam ActorBorderColor #E65100
skinparam ActorLineColor #E65100
skinparam UsecaseBackgroundColor #E3F2FD
skinparam UsecaseBorderColor #1565C0
skinparam UsecaseLineColor #1565C0
skinparam RectangleBackgroundColor #FFFFFF
skinparam RectangleBorderColor #455A64
skinparam RectangleLineColor #455A64
skinparam PackageBackgroundColor #F5F5F5
skinparam PackageBorderColor #90A4AE
skinparam PackageLineColor #90A4AE

left to right direction
skinparam packageStyle rectangle
skinparam shadowing false

actor "Visitante\n(Guest)" as Guest
actor "Cliente Logado\n(Customer)" as Customer
actor "Sistema / Gateway\n(Alpha Engine)" as System

Guest <|- - Customer : Herda permissões

rectangle "Alpha Engine - Loja Virtual & Portal do Cliente" {

    package "Catálogo, Busca & Mídia" {
        usecase "Navegar no Catálogo & Categorias" as UC_Nav
        usecase "Buscar Produtos com Filtros" as UC_Search
        usecase "Visualizar Detalhes do Produto" as UC_ProductDetail
        usecase "Selecionar Variantes & Opções" as UC_Variants
        usecase "Carregar Mídia & Cache On-Demand" as UC_MediaCache
    }

    package "Carrinho & Compras" {
        usecase "Adicionar ao Carrinho" as UC_Cart
        usecase "Calcular Frete por CEP" as UC_Shipping
        usecase "Aplicar Cupom de Desconto" as UC_Coupon
        usecase "Realizar Checkout" as UC_Checkout
        usecase "Comprar como Visitante" as UC_GuestCheckout
        usecase "Processar Pagamento" as UC_Payment
    }

    package "Autenticação & Sessão" {
        usecase "Cadastrar Nova Conta" as UC_Register
        usecase "Autenticar-se (Login / Logout)" as UC_Login
        usecase "Recuperar Senha por E-mail" as UC_ForgotPass
        usecase "Sincronizar Sessão Redis & Carrinho" as UC_SyncSession
    }

    package "Área 'Minha Conta' (Painel do Cliente)" {
        usecase "Acessar Painel do Cliente" as UC_AccountDash
        usecase "Gerenciar Dados Cadastrais\n(/account/edit)" as UC_EditAccount
        usecase "Alterar Senha Logado\n(/account/resetar-senha)" as UC_ChangePass
        usecase "Gerenciar Livro de Endereços\n(/account/addresses)" as UC_Addresses
        usecase "Gerenciar Lista de Desejos\n(/account/wishlist)" as UC_Wishlist
        usecase "Consultar Pedidos & Histórico\n(/account/orders)" as UC_Orders
        usecase "Consultar Extrato & Transações\n(/account/transaction)" as UC_Transactions
        usecase "Solicitar Devolução / RMA\n(/account/return)" as UC_Returns
        usecase "Gerenciar Inscrição na Newsletter\n(/account/newsletter)" as UC_Newsletter
    }

    package "Cotações & Projetos (RFQ / BoQ)" {
        usecase "Criar Solicitação de Orçamento (RFQ)\n(/projetos/novo)" as UC_CreateRfq
        usecase "Acompanhar Meus Projetos\n(/account/projetos)" as UC_MyProjects
        usecase "Comparar Propostas Recebidas\n(/propostas)" as UC_CompareBids
        usecase "Aceitar Proposta de Prestador\n(/aceitar)" as UC_AcceptBid
        usecase "Aprovar BoQ & Enviar ao Carrinho\n(/boq)" as UC_ApproveBoq
    }
}

Guest - -> UC_Nav
Guest - -> UC_Search
Guest - -> UC_ProductDetail
Guest - -> UC_Cart
Guest - -> UC_Register
Guest - -> UC_Login
Guest - -> UC_ForgotPass
Guest - -> UC_Checkout

UC_ProductDetail <.. UC_Variants : <<extend>>
UC_ProductDetail ..> UC_MediaCache : <<include>>
UC_Cart <.. UC_Shipping : <<extend>>
UC_Checkout <.. UC_Coupon : <<extend>>
UC_Checkout <.. UC_GuestCheckout : <<extend>>
UC_Checkout ..> UC_Payment : <<include>>
UC_Login ..> UC_SyncSession : <<include>>

Customer - -> UC_AccountDash
Customer - -> UC_EditAccount
Customer - -> UC_ChangePass
Customer - -> UC_Addresses
Customer - -> UC_Wishlist
Customer - -> UC_Orders
Customer - -> UC_Transactions
Customer - -> UC_Returns
Customer - -> UC_Newsletter

Customer - -> UC_CreateRfq
Customer - -> UC_MyProjects
UC_MyProjects <.. UC_CompareBids : <<extend>>
UC_CompareBids <.. UC_AcceptBid : <<extend>>
UC_MyProjects <.. UC_ApproveBoq : <<extend>>
UC_ApproveBoq ..> UC_Cart : <<include>>

System - -> UC_Payment
System - -> UC_MediaCache

@enduml

PlantUML version 1.2020.02(Sun Mar 01 07:22:07 GMT-03:00 2020)
(GPL source distribution)
Java Runtime: OpenJDK Runtime Environment
JVM: OpenJDK 64-Bit Server VM
Java Version: 25.0.4+7-1-deb13u1-Debian
Operating System: Linux
Default Encoding: UTF-8
Language: pt
Country: BR
--></g></svg>