<?xml version="1.0" encoding="UTF-8" standalone="no"?><svg xmlns="http://www.w3.org/2000/svg" xmlns:xlink="http://www.w3.org/1999/xlink" contentScriptType="application/ecmascript" contentStyleType="text/css" height="1867px" preserveAspectRatio="none" style="width:3204px;height:1867px;" version="1.1" viewBox="0 0 3204 1867" width="3204px" zoomAndPan="magnify"><defs/><g><text fill="#888888" font-family="sans-serif" font-size="10" lengthAdjust="spacingAndGlyphs" textLength="306" x="2886.5" y="20.69">Alpha Engine E-Commerce Architecture: Workflow de Atividades</text><text fill="#000000" font-family="sans-serif" font-size="18" lengthAdjust="spacingAndGlyphs" textLength="480" x="1361.25" y="42.8619">Árvore de Decisão e Workflow do Checkout E-Commerce</text><rect fill="#E0F2FE" height="1803.9887" style="stroke: #E0F2FE; stroke-width: 1.0;" width="991" x="10" y="51.9098"/><ellipse cx="448" cy="91.4256" fill="#2563EB" rx="10" ry="10" style="stroke: none; stroke-width: 1.0;"/><rect fill="#F8FAFC" height="36.3441" rx="12.5" ry="12.5" style="stroke: #475569; stroke-width: 1.5;" width="248" x="324" y="121.4256"/><text fill="#000000" font-family="Inter, Arial, sans-serif" font-size="12" lengthAdjust="spacingAndGlyphs" textLength="228" x="334" y="144.2537">Acessa a página de Checkout (/checkout)</text><rect fill="#F8FAFC" height="36.3441" rx="12.5" ry="12.5" style="stroke: #475569; stroke-width: 1.5;" width="194" x="351" y="366.458"/><text fill="#000000" font-family="Inter, Arial, sans-serif" font-size="12" lengthAdjust="spacingAndGlyphs" textLength="174" x="361" y="389.2861">Seleciona Endereço de Entrega</text><rect fill="#F8FAFC" height="36.3441" rx="12.5" ry="12.5" style="stroke: #475569; stroke-width: 1.5;" width="158" x="369" y="422.8021"/><text fill="#000000" font-family="Inter, Arial, sans-serif" font-size="12" lengthAdjust="spacingAndGlyphs" textLength="138" x="379" y="445.6302">Solicita Cotação de Frete</text><rect fill="#F8FAFC" height="36.3441" rx="12.5" ry="12.5" style="stroke: #475569; stroke-width: 1.5;" width="168" x="364" y="591.8344"/><text fill="#000000" font-family="Inter, Arial, sans-serif" font-size="12" lengthAdjust="spacingAndGlyphs" textLength="148" x="374" y="614.6625">Escolha o Método de Frete</text><rect fill="#F8FAFC" height="36.3441" rx="12.5" ry="12.5" style="stroke: #475569; stroke-width: 1.5;" width="165" x="365.5" y="697.6695"/><text fill="#000000" font-family="Inter, Arial, sans-serif" font-size="12" lengthAdjust="spacingAndGlyphs" textLength="145" x="375.5" y="720.4976">Informa código do Cupom</text><polygon fill="#FEFECE" points="374,648.1786,522,648.1786,534,660.1786,522,672.1786,374,672.1786,362,660.1786,374,648.1786" style="stroke: #A80036; stroke-width: 1.5;"/><text fill="#000000" font-family="sans-serif" font-size="11" lengthAdjust="spacingAndGlyphs" textLength="18" x="452" y="683.9375">sim</text><text fill="#000000" font-family="sans-serif" font-size="11" lengthAdjust="spacingAndGlyphs" textLength="148" x="374" y="664.4465">Possui Cupom de Desconto?</text><text fill="#000000" font-family="sans-serif" font-size="11" lengthAdjust="spacingAndGlyphs" textLength="20" x="534" y="656.9556">não</text><polygon fill="#FEFECE" points="448,944.5298,460,956.5298,448,968.5298,436,956.5298,448,944.5298" style="stroke: #A80036; stroke-width: 1.5;"/><rect fill="#F8FAFC" height="36.3441" rx="12.5" ry="12.5" style="stroke: #475569; stroke-width: 1.5;" width="197" x="349.5" y="988.5298"/><text fill="#000000" font-family="Inter, Arial, sans-serif" font-size="12" lengthAdjust="spacingAndGlyphs" textLength="177" x="359.5" y="1011.3579">Seleciona Forma de Pagamento</text><polygon fill="#FEFECE" points="41.5,1044.8739,224.5,1044.8739,236.5,1056.8739,224.5,1068.8739,41.5,1068.8739,29.5,1056.8739,41.5,1044.8739" style="stroke: #A80036; stroke-width: 1.5;"/><text fill="#000000" font-family="sans-serif" font-size="11" lengthAdjust="spacingAndGlyphs" textLength="17" x="137" y="1080.6328">PIX</text><text fill="#000000" font-family="sans-serif" font-size="11" lengthAdjust="spacingAndGlyphs" textLength="183" x="41.5" y="1061.1419">Forma de Pagamento Selecionada?</text><rect fill="#F8FAFC" height="36.3441" rx="12.5" ry="12.5" style="stroke: #475569; stroke-width: 1.5;" width="222" x="22" y="1175.1818"/><text fill="#000000" font-family="Inter, Arial, sans-serif" font-size="12" lengthAdjust="spacingAndGlyphs" textLength="202" x="32" y="1198.0099">Exibe QR Code e Chave Copia e Cola</text><polygon fill="#FEFECE" points="422.5,1044.8739,515.5,1044.8739,527.5,1056.8739,515.5,1068.8739,422.5,1068.8739,410.5,1056.8739,422.5,1044.8739" style="stroke: #A80036; stroke-width: 1.5;"/><text fill="#000000" font-family="sans-serif" font-size="11" lengthAdjust="spacingAndGlyphs" textLength="93" x="422.5" y="1061.1419">Cartão de Crédito</text><text fill="#000000" font-family="sans-serif" font-size="11" lengthAdjust="spacingAndGlyphs" textLength="83" x="527.5" y="1053.6509">Boleto Bancário</text><rect fill="#F8FAFC" height="36.3441" rx="12.5" ry="12.5" style="stroke: #475569; stroke-width: 1.5;" width="259" x="339.5" y="1088.8739"/><text fill="#000000" font-family="Inter, Arial, sans-serif" font-size="12" lengthAdjust="spacingAndGlyphs" textLength="239" x="349.5" y="1111.702">Preenche dados do Cartão e Parcelamento</text><rect fill="#F8FAFC" height="36.3441" rx="12.5" ry="12.5" style="stroke: #475569; stroke-width: 1.5;" width="224" x="474.5" y="1418.2141"/><text fill="#000000" font-family="Inter, Arial, sans-serif" font-size="12" lengthAdjust="spacingAndGlyphs" textLength="204" x="484.5" y="1441.0422">Exibe mensagem "Cartão Recusado"</text><rect fill="#F8FAFC" height="36.3441" rx="12.5" ry="12.5" style="stroke: #475569; stroke-width: 1.5;" width="271" x="451" y="1489.5401"/><text fill="#000000" font-family="Inter, Arial, sans-serif" font-size="12" lengthAdjust="spacingAndGlyphs" textLength="251" x="461" y="1512.3682">Oferece opção de trocar meio de pagamento</text><ellipse cx="586.5" cy="1557.522" fill="#FFFFFF" rx="11" ry="11" style="stroke: #DC2626; stroke-width: 1.0;"/><ellipse cx="586.5" cy="1557.522" fill="#DC2626" rx="6" ry="6" style="stroke: #ED9292; stroke-width: 1.0;"/><rect fill="#F8FAFC" height="36.3441" rx="12.5" ry="12.5" style="stroke: #475569; stroke-width: 1.5;" width="260" x="732" y="1300.198"/><text fill="#000000" font-family="Inter, Arial, sans-serif" font-size="12" lengthAdjust="spacingAndGlyphs" textLength="240" x="742" y="1323.0261">Disponibiliza link para impressão do Boleto</text><rect fill="#F8FAFC" height="36.3441" rx="12.5" ry="12.5" style="stroke: #475569; stroke-width: 1.5;" width="388" x="254" y="1777.5544"/><text fill="#000000" font-family="Inter, Arial, sans-serif" font-size="12" lengthAdjust="spacingAndGlyphs" textLength="368" x="264" y="1800.3825">Exibe Tela de Sucesso (/checkout/success) com número do pedido</text><ellipse cx="448" cy="1844.8985" fill="#FFFFFF" rx="11" ry="11" style="stroke: #DC2626; stroke-width: 1.0;"/><ellipse cx="448" cy="1844.8985" fill="#DC2626" rx="6" ry="6" style="stroke: #ED9292; stroke-width: 1.0;"/><rect fill="#FFF9C4" height="1803.9887" style="stroke: #FFF9C4; stroke-width: 1.0;" width="1278" x="1001" y="51.9098"/><rect fill="#F8FAFC" height="36.3441" rx="12.5" ry="12.5" style="stroke: #475569; stroke-width: 1.5;" width="214" x="1486" y="177.7698"/><text fill="#000000" font-family="Inter, Arial, sans-serif" font-size="12" lengthAdjust="spacingAndGlyphs" textLength="194" x="1496" y="200.5979">Valida sessão e estado do carrinho</text><polygon fill="#FEFECE" points="1495.5,234.1139,1690.5,234.1139,1702.5,246.1139,1690.5,258.1139,1495.5,258.1139,1483.5,246.1139,1495.5,234.1139" style="stroke: #A80036; stroke-width: 1.5;"/><text fill="#000000" font-family="sans-serif" font-size="11" lengthAdjust="spacingAndGlyphs" textLength="195" x="1495.5" y="250.3818">Carrinho possui produtos e estoque?</text><text fill="#000000" font-family="sans-serif" font-size="11" lengthAdjust="spacingAndGlyphs" textLength="18" x="1465.5" y="242.8909">sim</text><text fill="#000000" font-family="sans-serif" font-size="11" lengthAdjust="spacingAndGlyphs" textLength="105" x="1702.5" y="242.8909">não / carrinho vazio</text><rect fill="#F8FAFC" height="36.3441" rx="12.5" ry="12.5" style="stroke: #475569; stroke-width: 1.5;" width="257" x="1320" y="268.1139"/><text fill="#000000" font-family="Inter, Arial, sans-serif" font-size="12" lengthAdjust="spacingAndGlyphs" textLength="237" x="1330" y="290.942">Carrega endereços cadastrados do cliente</text><rect fill="#F8FAFC" height="36.3441" rx="12.5" ry="12.5" style="stroke: #475569; stroke-width: 1.5;" width="281" x="1597" y="268.1139"/><text fill="#000000" font-family="Inter, Arial, sans-serif" font-size="12" lengthAdjust="spacingAndGlyphs" textLength="261" x="1607" y="290.942">Redireciona para /cart com mensagem de erro</text><ellipse cx="1737.5" cy="335.458" fill="#FFFFFF" rx="11" ry="11" style="stroke: #DC2626; stroke-width: 1.0;"/><ellipse cx="1737.5" cy="335.458" fill="#DC2626" rx="6" ry="6" style="stroke: #ED9292; stroke-width: 1.0;"/><rect fill="#F8FAFC" height="36.3441" rx="12.5" ry="12.5" style="stroke: #475569; stroke-width: 1.5;" width="213" x="1486.5" y="479.1462"/><text fill="#000000" font-family="Inter, Arial, sans-serif" font-size="12" lengthAdjust="spacingAndGlyphs" textLength="193" x="1496.5" y="501.9743">Executa ShippingStrategyManager</text><rect fill="#F8FAFC" height="36.3441" rx="12.5" ry="12.5" style="stroke: #475569; stroke-width: 1.5;" width="260" x="1463" y="535.4903"/><text fill="#000000" font-family="Inter, Arial, sans-serif" font-size="12" lengthAdjust="spacingAndGlyphs" textLength="240" x="1473" y="558.3184">Retorna opções de frete (Fixo, Peso, Grátis)</text><rect fill="#F8FAFC" height="36.3441" rx="12.5" ry="12.5" style="stroke: #475569; stroke-width: 1.5;" width="312" x="1437" y="754.0136"/><text fill="#000000" font-family="Inter, Arial, sans-serif" font-size="12" lengthAdjust="spacingAndGlyphs" textLength="292" x="1447" y="776.8417">Valida Cupom (Validade, Uso Máximo, Valor Mínimo)</text><polygon fill="#FEFECE" points="1553.5,824.1857,1632.5,824.1857,1644.5,836.1857,1632.5,848.1857,1553.5,848.1857,1541.5,836.1857,1553.5,824.1857" style="stroke: #A80036; stroke-width: 1.5;"/><text fill="#000000" font-family="sans-serif" font-size="11" lengthAdjust="spacingAndGlyphs" textLength="79" x="1553.5" y="840.4536">Cupom Válido?</text><text fill="#000000" font-family="sans-serif" font-size="11" lengthAdjust="spacingAndGlyphs" textLength="18" x="1523.5" y="832.9627">sim</text><text fill="#000000" font-family="sans-serif" font-size="11" lengthAdjust="spacingAndGlyphs" textLength="42" x="1644.5" y="832.9627">inválido</text><rect fill="#F8FAFC" height="36.3441" rx="12.5" ry="12.5" style="stroke: #475569; stroke-width: 1.5;" width="210" x="1363.25" y="858.1857"/><text fill="#000000" font-family="Inter, Arial, sans-serif" font-size="12" lengthAdjust="spacingAndGlyphs" textLength="190" x="1373.25" y="881.0138">Aplica desconto ao total da ordem</text><rect fill="#F8FAFC" height="36.3441" rx="12.5" ry="12.5" style="stroke: #475569; stroke-width: 1.5;" width="249" x="1593.25" y="858.1857"/><text fill="#000000" font-family="Inter, Arial, sans-serif" font-size="12" lengthAdjust="spacingAndGlyphs" textLength="229" x="1603.25" y="881.0138">Exibe alerta de cupom inválido / expirado</text><polygon fill="#FEFECE" points="1593,900.5298,1605,912.5298,1593,924.5298,1581,912.5298,1593,900.5298" style="stroke: #A80036; stroke-width: 1.5;"/><rect fill="#F8FAFC" height="36.3441" rx="12.5" ry="12.5" style="stroke: #475569; stroke-width: 1.5;" width="253" x="1011" y="1103.8558"/><text fill="#000000" font-family="Inter, Arial, sans-serif" font-size="12" lengthAdjust="spacingAndGlyphs" textLength="233" x="1021" y="1126.6839">Gera Payload e QR Code PIX (PixGateway)</text><rect fill="#F8FAFC" height="36.3441" rx="12.5" ry="12.5" style="stroke: #475569; stroke-width: 1.5;" width="239" x="1138" y="1433.196"/><text fill="#000000" font-family="Inter, Arial, sans-serif" font-size="12" lengthAdjust="spacingAndGlyphs" textLength="219" x="1148" y="1456.0241">Cancela ordem por falta de pagamento</text><ellipse cx="1257.5" cy="1515.522" fill="#FFFFFF" rx="11" ry="11" style="stroke: #DC2626; stroke-width: 1.0;"/><ellipse cx="1257.5" cy="1515.522" fill="#DC2626" rx="6" ry="6" style="stroke: #ED9292; stroke-width: 1.0;"/><rect fill="#F8FAFC" height="36.3441" rx="12.5" ry="12.5" style="stroke: #475569; stroke-width: 1.5;" width="379" x="1424.5" y="1160.1999"/><text fill="#000000" font-family="Inter, Arial, sans-serif" font-size="12" lengthAdjust="spacingAndGlyphs" textLength="359" x="1434.5" y="1183.028">Envia payload criptografado ao Gateway (MercadoPagoAdapter)</text><rect fill="#F8FAFC" height="36.3441" rx="12.5" ry="12.5" style="stroke: #475569; stroke-width: 1.5;" width="188" x="1985" y="1228.8539"/><text fill="#000000" font-family="Inter, Arial, sans-serif" font-size="12" lengthAdjust="spacingAndGlyphs" textLength="168" x="1995" y="1251.6819">Emite linha digitável do Boleto</text><rect fill="#F8FAFC" height="36.3441" rx="12.5" ry="12.5" style="stroke: #475569; stroke-width: 1.5;" width="382" x="1888" y="1371.5421"/><text fill="#000000" font-family="Inter, Arial, sans-serif" font-size="12" lengthAdjust="spacingAndGlyphs" textLength="362" x="1898" y="1394.3702">Reserva estoque aguardando compensação bancária (até 3 dias)</text><ellipse cx="2079" cy="1453.8862" fill="#FFFFFF" rx="11" ry="11" style="stroke: #DC2626; stroke-width: 1.0;"/><ellipse cx="2079" cy="1453.8862" fill="#DC2626" rx="6" ry="6" style="stroke: #ED9292; stroke-width: 1.0;"/><rect fill="#F8FAFC" height="36.3441" rx="12.5" ry="12.5" style="stroke: #475569; stroke-width: 1.5;" width="369" x="1408.5" y="1608.522"/><text fill="#000000" font-family="Inter, Arial, sans-serif" font-size="12" lengthAdjust="spacingAndGlyphs" textLength="349" x="1418.5" y="1631.3501">Atualiza status do pedido para "PAGO / EM PROCESSAMENTO"</text><rect fill="#F8FAFC" height="36.3441" rx="12.5" ry="12.5" style="stroke: #475569; stroke-width: 1.5;" width="482" x="1352" y="1664.8661"/><text fill="#000000" font-family="Inter, Arial, sans-serif" font-size="12" lengthAdjust="spacingAndGlyphs" textLength="462" x="1362" y="1687.6942">Executa OrderObserverInterface (OrderEmailObserver + StockDeductionObserver)</text><rect fill="#F8FAFC" height="36.3441" rx="12.5" ry="12.5" style="stroke: #475569; stroke-width: 1.5;" width="161" x="1512.5" y="1721.2103"/><text fill="#000000" font-family="Inter, Arial, sans-serif" font-size="12" lengthAdjust="spacingAndGlyphs" textLength="141" x="1522.5" y="1744.0383">Limpa carrinho do cliente</text><rect fill="#DCFCE7" height="1803.9887" style="stroke: #DCFCE7; stroke-width: 1.0;" width="913.5" x="2279" y="51.9098"/><rect fill="#F8FAFC" height="36.3441" rx="12.5" ry="12.5" style="stroke: #475569; stroke-width: 1.5;" width="267" x="2376" y="1246.5078"/><text fill="#000000" font-family="Inter, Arial, sans-serif" font-size="12" lengthAdjust="spacingAndGlyphs" textLength="247" x="2386" y="1269.3359">Aguardando confirmação do BACEN / Banco</text><polygon fill="#FEFECE" points="2419,1317.8519,2600,1317.8519,2612,1329.8519,2600,1341.8519,2419,1341.8519,2407,1329.8519,2419,1317.8519" style="stroke: #A80036; stroke-width: 1.5;"/><text fill="#000000" font-family="sans-serif" font-size="11" lengthAdjust="spacingAndGlyphs" textLength="181" x="2419" y="1334.1199">Pagamento Confirmado no Prazo?</text><text fill="#000000" font-family="sans-serif" font-size="11" lengthAdjust="spacingAndGlyphs" textLength="18" x="2389" y="1326.6289">sim</text><text fill="#000000" font-family="sans-serif" font-size="11" lengthAdjust="spacingAndGlyphs" textLength="98" x="2612" y="1326.6289">expirado / timeout</text><rect fill="#F8FAFC" height="36.3441" rx="12.5" ry="12.5" style="stroke: #475569; stroke-width: 1.5;" width="201" x="2289" y="1361.8519"/><text fill="#000000" font-family="Inter, Arial, sans-serif" font-size="12" lengthAdjust="spacingAndGlyphs" textLength="181" x="2299" y="1384.68">Envia Webhook HTTP 200 (PAID)</text><rect fill="#F8FAFC" height="36.3441" rx="12.5" ry="12.5" style="stroke: #475569; stroke-width: 1.5;" width="189" x="2535" y="1361.8519"/><text fill="#000000" font-family="Inter, Arial, sans-serif" font-size="12" lengthAdjust="spacingAndGlyphs" textLength="169" x="2545" y="1384.68">Notifica expiração do QR Code</text><rect fill="#F8FAFC" height="36.3441" rx="12.5" ry="12.5" style="stroke: #475569; stroke-width: 1.5;" width="291" x="2840.5" y="1231.5259"/><text fill="#000000" font-family="Inter, Arial, sans-serif" font-size="12" lengthAdjust="spacingAndGlyphs" textLength="271" x="2850.5" y="1254.354">Processa análise de risco (Antifraude) &amp; Emissor</text><polygon fill="#FEFECE" points="2930,1302.87,3042,1302.87,3054,1314.87,3042,1326.87,2930,1326.87,2918,1314.87,2930,1302.87" style="stroke: #A80036; stroke-width: 1.5;"/><text fill="#000000" font-family="sans-serif" font-size="11" lengthAdjust="spacingAndGlyphs" textLength="112" x="2930" y="1319.138">Transação Aprovada?</text><text fill="#000000" font-family="sans-serif" font-size="11" lengthAdjust="spacingAndGlyphs" textLength="18" x="2900" y="1311.647">sim</text><text fill="#000000" font-family="sans-serif" font-size="11" lengthAdjust="spacingAndGlyphs" textLength="100" x="3054" y="1311.647">recusada / suspeita</text><rect fill="#F8FAFC" height="36.3441" rx="12.5" ry="12.5" style="stroke: #475569; stroke-width: 1.5;" width="159" x="2789" y="1346.87"/><text fill="#000000" font-family="Inter, Arial, sans-serif" font-size="12" lengthAdjust="spacingAndGlyphs" textLength="139" x="2799" y="1369.6981">Retorna Status APPOVED</text><rect fill="#F8FAFC" height="36.3441" rx="12.5" ry="12.5" style="stroke: #475569; stroke-width: 1.5;" width="160" x="3023.5" y="1346.87"/><text fill="#000000" font-family="Inter, Arial, sans-serif" font-size="12" lengthAdjust="spacingAndGlyphs" textLength="140" x="3033.5" y="1369.6981">Retorna Status REJECTED</text><line style="stroke: #A80036; stroke-width: 1.5;" x1="448" x2="448" y1="101.4256" y2="121.4256"/><polygon fill="#A80036" points="444,111.4256,448,121.4256,452,111.4256,448,115.4256" style="stroke: #A80036; stroke-width: 1.0;"/><line style="stroke: #A80036; stroke-width: 1.5;" x1="448" x2="448" y1="402.8021" y2="422.8021"/><polygon fill="#A80036" points="444,412.8021,448,422.8021,452,412.8021,448,416.8021" style="stroke: #A80036; stroke-width: 1.0;"/><line style="stroke: #A80036; stroke-width: 1.5;" x1="448" x2="448" y1="672.1786" y2="697.6695"/><polygon fill="#A80036" points="444,687.6695,448,697.6695,452,687.6695,448,691.6695" style="stroke: #A80036; stroke-width: 1.0;"/><line style="stroke: #A80036; stroke-width: 1.5;" x1="534" x2="717.25" y1="660.1786" y2="660.1786"/><polygon fill="#A80036" points="713.25,794.1857,717.25,804.1857,721.25,794.1857,717.25,798.1857" style="stroke: #A80036; stroke-width: 1.5;"/><line style="stroke: #A80036; stroke-width: 1.5;" x1="717.25" x2="717.25" y1="660.1786" y2="956.5298"/><line style="stroke: #A80036; stroke-width: 1.5;" x1="717.25" x2="460" y1="956.5298" y2="956.5298"/><polygon fill="#A80036" points="470,952.5298,460,956.5298,470,960.5298,466,956.5298" style="stroke: #A80036; stroke-width: 1.0;"/><line style="stroke: #A80036; stroke-width: 1.5;" x1="448" x2="448" y1="628.1786" y2="648.1786"/><polygon fill="#A80036" points="444,638.1786,448,648.1786,452,638.1786,448,642.1786" style="stroke: #A80036; stroke-width: 1.0;"/><line style="stroke: #A80036; stroke-width: 1.5;" x1="448" x2="448" y1="968.5298" y2="988.5298"/><polygon fill="#A80036" points="444,978.5298,448,988.5298,452,978.5298,448,982.5298" style="stroke: #A80036; stroke-width: 1.0;"/><line style="stroke: #A80036; stroke-width: 1.5;" x1="586.5" x2="586.5" y1="1454.5583" y2="1489.5401"/><polygon fill="#A80036" points="582.5,1479.5401,586.5,1489.5401,590.5,1479.5401,586.5,1483.5401" style="stroke: #A80036; stroke-width: 1.0;"/><line style="stroke: #A80036; stroke-width: 1.5;" x1="586.5" x2="586.5" y1="1525.8843" y2="1546.522"/><polygon fill="#A80036" points="582.5,1536.522,586.5,1546.522,590.5,1536.522,586.5,1540.522" style="stroke: #A80036; stroke-width: 1.0;"/><line style="stroke: #A80036; stroke-width: 1.5;" x1="469" x2="469" y1="1068.8739" y2="1088.8739"/><polygon fill="#A80036" points="465,1078.8739,469,1088.8739,473,1078.8739,469,1082.8739" style="stroke: #A80036; stroke-width: 1.0;"/><line style="stroke: #A80036; stroke-width: 1.5;" x1="236.5" x2="410.5" y1="1056.8739" y2="1056.8739"/><polygon fill="#A80036" points="400.5,1052.8739,410.5,1056.8739,400.5,1060.8739,404.5,1056.8739" style="stroke: #A80036; stroke-width: 1.0;"/><line style="stroke: #A80036; stroke-width: 1.5;" x1="448" x2="448" y1="1024.8739" y2="1029.8739"/><line style="stroke: #A80036; stroke-width: 1.5;" x1="448" x2="133" y1="1029.8739" y2="1029.8739"/><line style="stroke: #A80036; stroke-width: 1.5;" x1="133" x2="133" y1="1029.8739" y2="1044.8739"/><polygon fill="#A80036" points="129,1034.8739,133,1044.8739,137,1034.8739,133,1038.8739" style="stroke: #A80036; stroke-width: 1.0;"/><line style="stroke: #A80036; stroke-width: 1.5;" x1="448" x2="448" y1="1813.8985" y2="1833.8985"/><polygon fill="#A80036" points="444,1823.8985,448,1833.8985,452,1823.8985,448,1827.8985" style="stroke: #A80036; stroke-width: 1.0;"/><line style="stroke: #A80036; stroke-width: 1.5;" x1="1737.5" x2="1737.5" y1="304.458" y2="324.458"/><polygon fill="#A80036" points="1733.5,314.458,1737.5,324.458,1741.5,314.458,1737.5,318.458" style="stroke: #A80036; stroke-width: 1.0;"/><line style="stroke: #A80036; stroke-width: 1.5;" x1="1483.5" x2="1448.5" y1="246.1139" y2="246.1139"/><line style="stroke: #A80036; stroke-width: 1.5;" x1="1448.5" x2="1448.5" y1="246.1139" y2="268.1139"/><polygon fill="#A80036" points="1444.5,258.1139,1448.5,268.1139,1452.5,258.1139,1448.5,262.1139" style="stroke: #A80036; stroke-width: 1.0;"/><line style="stroke: #A80036; stroke-width: 1.5;" x1="1702.5" x2="1737.5" y1="246.1139" y2="246.1139"/><line style="stroke: #A80036; stroke-width: 1.5;" x1="1737.5" x2="1737.5" y1="246.1139" y2="268.1139"/><polygon fill="#A80036" points="1733.5,258.1139,1737.5,268.1139,1741.5,258.1139,1737.5,262.1139" style="stroke: #A80036; stroke-width: 1.0;"/><line style="stroke: #A80036; stroke-width: 1.5;" x1="1448.5" x2="1448.5" y1="304.458" y2="351.458"/><line style="stroke: #A80036; stroke-width: 1.5;" x1="1448.5" x2="448" y1="351.458" y2="351.458"/><line style="stroke: #A80036; stroke-width: 1.5;" x1="448" x2="448" y1="351.458" y2="366.458"/><polygon fill="#A80036" points="444,356.458,448,366.458,452,356.458,448,360.458" style="stroke: #A80036; stroke-width: 1.0;"/><line style="stroke: #A80036; stroke-width: 1.5;" x1="1593" x2="1593" y1="214.1139" y2="234.1139"/><polygon fill="#A80036" points="1589,224.1139,1593,234.1139,1597,224.1139,1593,228.1139" style="stroke: #A80036; stroke-width: 1.0;"/><line style="stroke: #A80036; stroke-width: 1.5;" x1="1593" x2="1593" y1="515.4903" y2="535.4903"/><polygon fill="#A80036" points="1589,525.4903,1593,535.4903,1597,525.4903,1593,529.4903" style="stroke: #A80036; stroke-width: 1.0;"/><line style="stroke: #A80036; stroke-width: 1.5;" x1="1541.5" x2="1468.25" y1="836.1857" y2="836.1857"/><line style="stroke: #A80036; stroke-width: 1.5;" x1="1468.25" x2="1468.25" y1="836.1857" y2="858.1857"/><polygon fill="#A80036" points="1464.25,848.1857,1468.25,858.1857,1472.25,848.1857,1468.25,852.1857" style="stroke: #A80036; stroke-width: 1.0;"/><line style="stroke: #A80036; stroke-width: 1.5;" x1="1644.5" x2="1717.75" y1="836.1857" y2="836.1857"/><line style="stroke: #A80036; stroke-width: 1.5;" x1="1717.75" x2="1717.75" y1="836.1857" y2="858.1857"/><polygon fill="#A80036" points="1713.75,848.1857,1717.75,858.1857,1721.75,848.1857,1717.75,852.1857" style="stroke: #A80036; stroke-width: 1.0;"/><line style="stroke: #A80036; stroke-width: 1.5;" x1="1468.25" x2="1468.25" y1="894.5298" y2="912.5298"/><line style="stroke: #A80036; stroke-width: 1.5;" x1="1468.25" x2="1581" y1="912.5298" y2="912.5298"/><polygon fill="#A80036" points="1571,908.5298,1581,912.5298,1571,916.5298,1575,912.5298" style="stroke: #A80036; stroke-width: 1.0;"/><line style="stroke: #A80036; stroke-width: 1.5;" x1="1717.75" x2="1717.75" y1="894.5298" y2="912.5298"/><line style="stroke: #A80036; stroke-width: 1.5;" x1="1717.75" x2="1605" y1="912.5298" y2="912.5298"/><polygon fill="#A80036" points="1615,908.5298,1605,912.5298,1615,916.5298,1611,912.5298" style="stroke: #A80036; stroke-width: 1.0;"/><line style="stroke: #A80036; stroke-width: 1.5;" x1="1593" x2="1593" y1="790.3577" y2="824.1857"/><polygon fill="#A80036" points="1589,814.1857,1593,824.1857,1597,814.1857,1593,818.1857" style="stroke: #A80036; stroke-width: 1.0;"/><line style="stroke: #A80036; stroke-width: 1.5;" x1="1257.5" x2="1257.5" y1="1469.5401" y2="1504.522"/><polygon fill="#A80036" points="1253.5,1494.522,1257.5,1504.522,1261.5,1494.522,1257.5,1498.522" style="stroke: #A80036; stroke-width: 1.0;"/><line style="stroke: #A80036; stroke-width: 1.5;" x1="2079" x2="2079" y1="1407.8862" y2="1442.8862"/><polygon fill="#A80036" points="2075,1432.8862,2079,1442.8862,2083,1432.8862,2079,1436.8862" style="stroke: #A80036; stroke-width: 1.0;"/><line style="stroke: #A80036; stroke-width: 1.5;" x1="1593" x2="1593" y1="1644.8661" y2="1664.8661"/><polygon fill="#A80036" points="1589,1654.8661,1593,1664.8661,1597,1654.8661,1593,1658.8661" style="stroke: #A80036; stroke-width: 1.0;"/><line style="stroke: #A80036; stroke-width: 1.5;" x1="1593" x2="1593" y1="1701.2103" y2="1721.2103"/><polygon fill="#A80036" points="1589,1711.2103,1593,1721.2103,1597,1711.2103,1593,1715.2103" style="stroke: #A80036; stroke-width: 1.0;"/><line style="stroke: #A80036; stroke-width: 1.5;" x1="2407" x2="2389.5" y1="1329.8519" y2="1329.8519"/><line style="stroke: #A80036; stroke-width: 1.5;" x1="2389.5" x2="2389.5" y1="1329.8519" y2="1361.8519"/><polygon fill="#A80036" points="2385.5,1351.8519,2389.5,1361.8519,2393.5,1351.8519,2389.5,1355.8519" style="stroke: #A80036; stroke-width: 1.0;"/><line style="stroke: #A80036; stroke-width: 1.5;" x1="2612" x2="2629.5" y1="1329.8519" y2="1329.8519"/><line style="stroke: #A80036; stroke-width: 1.5;" x1="2629.5" x2="2629.5" y1="1329.8519" y2="1361.8519"/><polygon fill="#A80036" points="2625.5,1351.8519,2629.5,1361.8519,2633.5,1351.8519,2629.5,1355.8519" style="stroke: #A80036; stroke-width: 1.0;"/><line style="stroke: #A80036; stroke-width: 1.5;" x1="2389.5" x2="2389.5" y1="1398.196" y2="1531.522"/><line style="stroke: #A80036; stroke-width: 1.5;" x1="2389.5" x2="2509.5" y1="1531.522" y2="1531.522"/><line style="stroke: #A80036; stroke-width: 1.5;" x1="2509.5" x2="2509.5" y1="1531.522" y2="1588.522"/><polygon fill="#A80036" points="2505.5,1578.522,2509.5,1588.522,2513.5,1578.522,2509.5,1582.522" style="stroke: #A80036; stroke-width: 1.0;"/><line style="stroke: #A80036; stroke-width: 1.5;" x1="2509.5" x2="2509.5" y1="1282.8519" y2="1317.8519"/><polygon fill="#A80036" points="2505.5,1307.8519,2509.5,1317.8519,2513.5,1307.8519,2509.5,1311.8519" style="stroke: #A80036; stroke-width: 1.0;"/><line style="stroke: #A80036; stroke-width: 1.5;" x1="2918" x2="2868.5" y1="1314.87" y2="1314.87"/><line style="stroke: #A80036; stroke-width: 1.5;" x1="2868.5" x2="2868.5" y1="1314.87" y2="1346.87"/><polygon fill="#A80036" points="2864.5,1336.87,2868.5,1346.87,2872.5,1336.87,2868.5,1340.87" style="stroke: #A80036; stroke-width: 1.0;"/><line style="stroke: #A80036; stroke-width: 1.5;" x1="3054" x2="3103.5" y1="1314.87" y2="1314.87"/><line style="stroke: #A80036; stroke-width: 1.5;" x1="3103.5" x2="3103.5" y1="1314.87" y2="1346.87"/><polygon fill="#A80036" points="3099.5,1336.87,3103.5,1346.87,3107.5,1336.87,3103.5,1340.87" style="stroke: #A80036; stroke-width: 1.0;"/><line style="stroke: #A80036; stroke-width: 1.5;" x1="2868.5" x2="2868.5" y1="1383.2141" y2="1573.522"/><line style="stroke: #A80036; stroke-width: 1.5;" x1="2868.5" x2="2986" y1="1573.522" y2="1573.522"/><line style="stroke: #A80036; stroke-width: 1.5;" x1="2986" x2="2986" y1="1573.522" y2="1588.522"/><polygon fill="#A80036" points="2982,1578.522,2986,1588.522,2990,1578.522,2986,1582.522" style="stroke: #A80036; stroke-width: 1.0;"/><line style="stroke: #A80036; stroke-width: 1.5;" x1="2986" x2="2986" y1="1267.87" y2="1302.87"/><polygon fill="#A80036" points="2982,1292.87,2986,1302.87,2990,1292.87,2986,1296.87" style="stroke: #A80036; stroke-width: 1.0;"/><line style="stroke: #A80036; stroke-width: 1.5;" x1="2509.5" x2="2986" y1="1588.522" y2="1588.522"/><line style="stroke: #A80036; stroke-width: 1.5;" x1="448" x2="448" y1="157.7698" y2="162.7698"/><line style="stroke: #A80036; stroke-width: 1.5;" x1="448" x2="1593" y1="162.7698" y2="162.7698"/><line style="stroke: #A80036; stroke-width: 1.5;" x1="1593" x2="1593" y1="162.7698" y2="177.7698"/><polygon fill="#A80036" points="1589,167.7698,1593,177.7698,1597,167.7698,1593,171.7698" style="stroke: #A80036; stroke-width: 1.0;"/><line style="stroke: #A80036; stroke-width: 1.5;" x1="448" x2="448" y1="459.1462" y2="464.1462"/><line style="stroke: #A80036; stroke-width: 1.5;" x1="448" x2="1593" y1="464.1462" y2="464.1462"/><line style="stroke: #A80036; stroke-width: 1.5;" x1="1593" x2="1593" y1="464.1462" y2="479.1462"/><polygon fill="#A80036" points="1589,469.1462,1593,479.1462,1597,469.1462,1593,473.1462" style="stroke: #A80036; stroke-width: 1.0;"/><line style="stroke: #A80036; stroke-width: 1.5;" x1="1593" x2="1593" y1="571.8344" y2="576.8344"/><line style="stroke: #A80036; stroke-width: 1.5;" x1="1593" x2="448" y1="576.8344" y2="576.8344"/><line style="stroke: #A80036; stroke-width: 1.5;" x1="448" x2="448" y1="576.8344" y2="591.8344"/><polygon fill="#A80036" points="444,581.8344,448,591.8344,452,581.8344,448,585.8344" style="stroke: #A80036; stroke-width: 1.0;"/><line style="stroke: #A80036; stroke-width: 1.5;" x1="448" x2="448" y1="734.0136" y2="739.0136"/><line style="stroke: #A80036; stroke-width: 1.5;" x1="448" x2="1593" y1="739.0136" y2="739.0136"/><line style="stroke: #A80036; stroke-width: 1.5;" x1="1593" x2="1593" y1="739.0136" y2="754.0136"/><polygon fill="#A80036" points="1589,744.0136,1593,754.0136,1597,744.0136,1593,748.0136" style="stroke: #A80036; stroke-width: 1.0;"/><line style="stroke: #A80036; stroke-width: 1.5;" x1="1593" x2="1593" y1="924.5298" y2="931.7843"/><line style="stroke: #A80036; stroke-width: 1.5;" x1="1593" x2="448" y1="931.7843" y2="931.7843"/><line style="stroke: #A80036; stroke-width: 1.5;" x1="448" x2="448" y1="931.7843" y2="944.5298"/><polygon fill="#A80036" points="444,934.5298,448,944.5298,452,934.5298,448,938.5298" style="stroke: #A80036; stroke-width: 1.0;"/><line style="stroke: #A80036; stroke-width: 1.5;" x1="1137.5" x2="1137.5" y1="1140.1999" y2="1157.6818"/><line style="stroke: #A80036; stroke-width: 1.5;" x1="1137.5" x2="133" y1="1157.6818" y2="1157.6818"/><line style="stroke: #A80036; stroke-width: 1.5;" x1="133" x2="133" y1="1157.6818" y2="1175.1818"/><polygon fill="#A80036" points="129,1165.1818,133,1175.1818,137,1165.1818,133,1169.1818" style="stroke: #A80036; stroke-width: 1.0;"/><line style="stroke: #A80036; stroke-width: 1.5;" x1="133" x2="133" y1="1211.5259" y2="1229.0078"/><line style="stroke: #A80036; stroke-width: 1.5;" x1="133" x2="2509.5" y1="1229.0078" y2="1229.0078"/><line style="stroke: #A80036; stroke-width: 1.5;" x1="2509.5" x2="2509.5" y1="1229.0078" y2="1246.5078"/><polygon fill="#A80036" points="2505.5,1236.5078,2509.5,1246.5078,2513.5,1236.5078,2509.5,1240.5078" style="stroke: #A80036; stroke-width: 1.0;"/><line style="stroke: #A80036; stroke-width: 1.5;" x1="2629.5" x2="2629.5" y1="1398.196" y2="1415.696"/><line style="stroke: #A80036; stroke-width: 1.5;" x1="2629.5" x2="1257.5" y1="1415.696" y2="1415.696"/><line style="stroke: #A80036; stroke-width: 1.5;" x1="1257.5" x2="1257.5" y1="1415.696" y2="1433.196"/><polygon fill="#A80036" points="1253.5,1423.196,1257.5,1433.196,1261.5,1423.196,1257.5,1427.196" style="stroke: #A80036; stroke-width: 1.0;"/><line style="stroke: #A80036; stroke-width: 1.5;" x1="469" x2="469" y1="1125.218" y2="1142.718"/><line style="stroke: #A80036; stroke-width: 1.5;" x1="469" x2="1614" y1="1142.718" y2="1142.718"/><line style="stroke: #A80036; stroke-width: 1.5;" x1="1614" x2="1614" y1="1142.718" y2="1160.1999"/><polygon fill="#A80036" points="1610,1150.1999,1614,1160.1999,1618,1150.1999,1614,1154.1999" style="stroke: #A80036; stroke-width: 1.0;"/><line style="stroke: #A80036; stroke-width: 1.5;" x1="1614" x2="1614" y1="1196.544" y2="1214.044"/><line style="stroke: #A80036; stroke-width: 1.5;" x1="1614" x2="2986" y1="1214.044" y2="1214.044"/><line style="stroke: #A80036; stroke-width: 1.5;" x1="2986" x2="2986" y1="1214.044" y2="1231.5259"/><polygon fill="#A80036" points="2982,1221.5259,2986,1231.5259,2990,1221.5259,2986,1225.5259" style="stroke: #A80036; stroke-width: 1.0;"/><line style="stroke: #A80036; stroke-width: 1.5;" x1="3103.5" x2="3103.5" y1="1383.2141" y2="1400.7141"/><line style="stroke: #A80036; stroke-width: 1.5;" x1="3103.5" x2="586.5" y1="1400.7141" y2="1400.7141"/><line style="stroke: #A80036; stroke-width: 1.5;" x1="586.5" x2="586.5" y1="1400.7141" y2="1418.2141"/><polygon fill="#A80036" points="582.5,1408.2141,586.5,1418.2141,590.5,1408.2141,586.5,1412.2141" style="stroke: #A80036; stroke-width: 1.0;"/><line style="stroke: #A80036; stroke-width: 1.5;" x1="2079" x2="2079" y1="1265.198" y2="1282.698"/><line style="stroke: #A80036; stroke-width: 1.5;" x1="2079" x2="862" y1="1282.698" y2="1282.698"/><line style="stroke: #A80036; stroke-width: 1.5;" x1="862" x2="862" y1="1282.698" y2="1300.198"/><polygon fill="#A80036" points="858,1290.198,862,1300.198,866,1290.198,862,1294.198" style="stroke: #A80036; stroke-width: 1.0;"/><line style="stroke: #A80036; stroke-width: 1.5;" x1="862" x2="862" y1="1336.5421" y2="1354.0421"/><line style="stroke: #A80036; stroke-width: 1.5;" x1="862" x2="2079" y1="1354.0421" y2="1354.0421"/><line style="stroke: #A80036; stroke-width: 1.5;" x1="2079" x2="2079" y1="1354.0421" y2="1371.5421"/><polygon fill="#A80036" points="2075,1361.5421,2079,1371.5421,2083,1361.5421,2079,1365.5421" style="stroke: #A80036; stroke-width: 1.0;"/><line style="stroke: #A80036; stroke-width: 1.5;" x1="133" x2="133" y1="1068.8739" y2="1072.8739"/><line style="stroke: #A80036; stroke-width: 1.5;" x1="133" x2="1137.5" y1="1072.8739" y2="1072.8739"/><line style="stroke: #A80036; stroke-width: 1.5;" x1="1137.5" x2="1137.5" y1="1072.8739" y2="1103.8558"/><polygon fill="#A80036" points="1133.5,1093.8558,1137.5,1103.8558,1141.5,1093.8558,1137.5,1097.8558" style="stroke: #A80036; stroke-width: 1.0;"/><line style="stroke: #A80036; stroke-width: 1.5;" x1="448" x2="448" y1="1588.522" y2="1593.522"/><line style="stroke: #A80036; stroke-width: 1.5;" x1="448" x2="1593" y1="1593.522" y2="1593.522"/><line style="stroke: #A80036; stroke-width: 1.5;" x1="1593" x2="1593" y1="1593.522" y2="1608.522"/><polygon fill="#A80036" points="1589,1598.522,1593,1608.522,1597,1598.522,1593,1602.522" style="stroke: #A80036; stroke-width: 1.0;"/><line style="stroke: #A80036; stroke-width: 1.5;" x1="1593" x2="1593" y1="1757.5544" y2="1762.5544"/><line style="stroke: #A80036; stroke-width: 1.5;" x1="1593" x2="448" y1="1762.5544" y2="1762.5544"/><line style="stroke: #A80036; stroke-width: 1.5;" x1="448" x2="448" y1="1762.5544" y2="1777.5544"/><polygon fill="#A80036" points="444,1767.5544,448,1777.5544,452,1767.5544,448,1771.5544" style="stroke: #A80036; stroke-width: 1.0;"/><text fill="#000000" font-family="sans-serif" font-size="18" lengthAdjust="spacingAndGlyphs" textLength="153" x="399" y="71.1517">Cliente / Frontend</text><text fill="#000000" font-family="sans-serif" font-size="18" lengthAdjust="spacingAndGlyphs" textLength="263" x="1513" y="71.1517">Engine Backend (Alpha Engine)</text><text fill="#000000" font-family="sans-serif" font-size="18" lengthAdjust="spacingAndGlyphs" textLength="296" x="2587.75" y="71.1517">Gateway / Provedor de Pagamento</text><line style="stroke: #000000; stroke-width: 2.0;" x1="10" x2="10" y1="51.9098" y2="1855.8985"/><line style="stroke: #000000; stroke-width: 2.0;" x1="1001" x2="1001" y1="51.9098" y2="1855.8985"/><line style="stroke: #000000; stroke-width: 2.0;" x1="2279" x2="2279" y1="51.9098" y2="1855.8985"/><line style="stroke: #000000; stroke-width: 2.0;" x1="3192.5" x2="3192.5" y1="51.9098" y2="1855.8985"/><!--MD5=[9c36fb3258a5f6d05613c0c2078fd26b]
@startuml
skinparam backgroundColor #FFFFFF
skinparam shadowing false
skinparam activity {
    StartColor #2563EB
    EndColor #DC2626
    BackgroundColor #F8FAFC
    BorderColor #475569
    FontName Inter, Arial, sans-serif
}

header Alpha Engine E-Commerce Architecture: Workflow de Atividades
title Árvore de Decisão e Workflow do Checkout E-Commerce

|#E0F2FE|Cliente / Frontend|
start
:Acessa a página de Checkout (/checkout);

|#FFF9C4|Engine Backend (Alpha Engine)|
:Valida sessão e estado do carrinho;
if (Carrinho possui produtos e estoque?) then (sim)
    :Carrega endereços cadastrados do cliente;
else (não / carrinho vazio)
    :Redireciona para /cart com mensagem de erro;
    stop
endif

|Cliente / Frontend|
:Seleciona Endereço de Entrega;
:Solicita Cotação de Frete;

|Engine Backend (Alpha Engine)|
:Executa ShippingStrategyManager;
:Retorna opções de frete (Fixo, Peso, Grátis);

|Cliente / Frontend|
:Escolha o Método de Frete;
if (Possui Cupom de Desconto?) then (sim)
    :Informa código do Cupom;
    |Engine Backend (Alpha Engine)|
    :Valida Cupom (Validade, Uso Máximo, Valor Mínimo);
    if (Cupom Válido?) then (sim)
        :Aplica desconto ao total da ordem;
    else (inválido)
        :Exibe alerta de cupom inválido / expirado;
    endif
else (não)
endif

|Cliente / Frontend|
:Seleciona Forma de Pagamento;

if (Forma de Pagamento Selecionada?) is (PIX) then
    |Engine Backend (Alpha Engine)|
    :Gera Payload e QR Code PIX (PixGateway);
    |Cliente / Frontend|
    :Exibe QR Code e Chave Copia e Cola;
    |#DCFCE7|Gateway / Provedor de Pagamento|
    :Aguardando confirmação do BACEN / Banco;
    if (Pagamento Confirmado no Prazo?) then (sim)
        :Envia Webhook HTTP 200 (PAID);
    else (expirado / timeout)
        :Notifica expiração do QR Code;
        |Engine Backend (Alpha Engine)|
        :Cancela ordem por falta de pagamento;
        stop
    endif
elseif (Cartão de Crédito) then
    |Cliente / Frontend|
    :Preenche dados do Cartão e Parcelamento;
    |Engine Backend (Alpha Engine)|
    :Envia payload criptografado ao Gateway (MercadoPagoAdapter);
    |Gateway / Provedor de Pagamento|
    :Processa análise de risco (Antifraude) & Emissor;
    if (Transação Aprovada?) then (sim)
        :Retorna Status APPOVED;
    else (recusada / suspeita)
        :Retorna Status REJECTED;
        |Cliente / Frontend|
        :Exibe mensagem "Cartão Recusado";
        :Oferece opção de trocar meio de pagamento;
        stop
    endif
else (Boleto Bancário)
    |Engine Backend (Alpha Engine)|
    :Emite linha digitável do Boleto;
    |Cliente / Frontend|
    :Disponibiliza link para impressão do Boleto;
    |Engine Backend (Alpha Engine)|
    :Reserva estoque aguardando compensação bancária (até 3 dias);
    stop
endif

|Engine Backend (Alpha Engine)|
:Atualiza status do pedido para "PAGO / EM PROCESSAMENTO";
:Executa OrderObserverInterface (OrderEmailObserver + StockDeductionObserver);
:Limpa carrinho do cliente;

|Cliente / Frontend|
:Exibe Tela de Sucesso (/checkout/success) com número do pedido;
stop

@enduml

PlantUML version 1.2020.02(Sun Mar 01 07:22:07 GMT-03:00 2020)
(GPL source distribution)
Java Runtime: OpenJDK Runtime Environment
JVM: OpenJDK 64-Bit Server VM
Java Version: 25.0.4+7-1-deb13u1-Debian
Operating System: Linux
Default Encoding: UTF-8
Language: pt
Country: BR
--></g></svg>